<svg width="22" height="22" viewBox="0 0 22 22" fill="none" xmlns="http://www.w3.org/2000/svg">
<path d="M0 19.8218C0 21.0198 0.980217 22 2.17826 22H5.01L0 16.9901V19.8218Z" fill="#12991F"/>
<path d="M21.3464 4.13862L17.8612 0.653466C16.9899 -0.217822 15.683 -0.217822 14.8117 0.653466L14.5938 0.871288C14.1582 1.30693 14.1582 1.9604 14.5938 2.39604L19.6038 7.40595C20.0395 7.84159 20.693 7.84159 21.1286 7.40595L21.3464 7.18813C22.2177 6.31684 22.2177 5.00991 21.3464 4.13862Z" fill="#12991F"/>
<path d="M13.0695 3.92085C12.6338 3.48521 11.9804 3.48521 11.5447 3.92085L1.63362 13.8318C1.08906 14.3763 1.08906 15.0298 1.52471 15.4654L6.53471 20.4753C6.97036 20.911 7.62384 20.911 8.05949 20.4753L17.9706 10.5644C18.4062 10.1288 18.4062 9.47531 17.9706 9.03967L13.0695 3.92085Z" fill="#12991F"/>
</svg>
