<svg width="65" height="40" viewBox="0 0 65 40" fill="#BBBBBB" fill-opacity="0.733333" xmlns="http://www.w3.org/2000/svg">
    <path transform="translate(0, 4) scale(0.9)" d="M30.2857 29.5128C30.2857 31.3576 29.7747 32.8143 28.7525 33.8827C27.7304 34.9511 26.3723 35.4854 24.6781 35.4854H6.32194C4.62774 35.4854 3.26958 34.9511 2.24746 33.8827C1.22535 32.8143 0.714287 31.3576 0.714287 29.5128C0.714287 28.6981 0.73879 27.9025 0.787795 27.1262C0.836801 26.3498 0.934812 25.512 1.08183 24.6126C1.22885 23.7133 1.41437 22.8793 1.63839 22.1106C1.86242 21.342 2.16345 20.5925 2.5415 19.8623C2.91954 19.1321 3.35359 18.5095 3.84365 17.9945C4.33371 17.4795 4.93228 17.0682 5.63936 16.7608C6.34644 16.4533 7.12703 16.2996 7.98113 16.2996C8.10714 16.2996 8.40118 16.4648 8.86323 16.7953C9.32528 17.1259 9.84685 17.4948 10.4279 17.9022C11.009 18.3096 11.7651 18.6786 12.6962 19.0091C13.6273 19.3396 14.5619 19.5049 15.5 19.5049C16.4381 19.5049 17.3727 19.3396 18.3038 19.0091C19.2349 18.6786 19.991 18.3096 20.5721 17.9022C21.1532 17.4948 21.6747 17.1259 22.1368 16.7953C22.5988 16.4648 22.8929 16.2996 23.0189 16.2996C23.873 16.2996 24.6536 16.4533 25.3606 16.7608C26.0677 17.0682 26.6663 17.4795 27.1564 17.9945C27.6464 18.5095 28.0805 19.1321 28.4585 19.8623C28.8365 20.5925 29.1376 21.342 29.3616 22.1106C29.5856 22.8793 29.7712 23.7133 29.9182 24.6126C30.0652 25.512 30.1632 26.3498 30.2122 27.1262C30.2612 27.9025 30.2857 28.6981 30.2857 29.5128ZM23.5649 8.92041C23.5649 11.3648 22.7773 13.4517 21.2022 15.1812C19.627 16.9106 17.7263 17.7754 15.5 17.7754C13.2737 17.7754 11.373 16.9106 9.79784 15.1812C8.22266 13.4517 7.43507 11.3648 7.43507 8.92041C7.43507 6.47607 8.22266 4.38915 9.79784 2.65966C11.373 0.930174 13.2737 0.0654297 15.5 0.0654297C17.7263 0.0654297 19.627 0.930174 21.2022 2.65966C22.7773 4.38915 23.5649 6.47607 23.5649 8.92041Z"/>
    <path transform="translate(37.1, 4) scale(0.9)" d="M30.2857 29.5128C30.2857 31.3576 29.7747 32.8143 28.7525 33.8827C27.7304 34.9511 26.3723 35.4854 24.6781 35.4854H6.32194C4.62774 35.4854 3.26958 34.9511 2.24746 33.8827C1.22535 32.8143 0.714287 31.3576 0.714287 29.5128C0.714287 28.6981 0.73879 27.9025 0.787795 27.1262C0.836801 26.3498 0.934812 25.512 1.08183 24.6126C1.22885 23.7133 1.41437 22.8793 1.63839 22.1106C1.86242 21.342 2.16345 20.5925 2.5415 19.8623C2.91954 19.1321 3.35359 18.5095 3.84365 17.9945C4.33371 17.4795 4.93228 17.0682 5.63936 16.7608C6.34644 16.4533 7.12703 16.2996 7.98113 16.2996C8.10714 16.2996 8.40118 16.4648 8.86323 16.7953C9.32528 17.1259 9.84685 17.4948 10.4279 17.9022C11.009 18.3096 11.7651 18.6786 12.6962 19.0091C13.6273 19.3396 14.5619 19.5049 15.5 19.5049C16.4381 19.5049 17.3727 19.3396 18.3038 19.0091C19.2349 18.6786 19.991 18.3096 20.5721 17.9022C21.1532 17.4948 21.6747 17.1259 22.1368 16.7953C22.5988 16.4648 22.8929 16.2996 23.0189 16.2996C23.873 16.2996 24.6536 16.4533 25.3606 16.7608C26.0677 17.0682 26.6663 17.4795 27.1564 17.9945C27.6464 18.5095 28.0805 19.1321 28.4585 19.8623C28.8365 20.5925 29.1376 21.342 29.3616 22.1106C29.5856 22.8793 29.7712 23.7133 29.9182 24.6126C30.0652 25.512 30.1632 26.3498 30.2122 27.1262C30.2612 27.9025 30.2857 28.6981 30.2857 29.5128ZM23.5649 8.92041C23.5649 11.3648 22.7773 13.4517 21.2022 15.1812C19.627 16.9106 17.7263 17.7754 15.5 17.7754C13.2737 17.7754 11.373 16.9106 9.79784 15.1812C8.22266 13.4517 7.43507 11.3648 7.43507 8.92041C7.43507 6.47607 8.22266 4.38915 9.79784 2.65966C11.373 0.930174 13.2737 0.0654297 15.5 0.0654297C17.7263 0.0654297 19.627 0.930174 21.2022 2.65966C22.7773 4.38915 23.5649 6.47607 23.5649 8.92041Z"/>
    <path transform="translate(17, 0)" d="M30.2857 29.5128C30.2857 31.3576 29.7747 32.8143 28.7525 33.8827C27.7304 34.9511 26.3723 35.4854 24.6781 35.4854H6.32194C4.62774 35.4854 3.26958 34.9511 2.24746 33.8827C1.22535 32.8143 0.714287 31.3576 0.714287 29.5128C0.714287 28.6981 0.73879 27.9025 0.787795 27.1262C0.836801 26.3498 0.934812 25.512 1.08183 24.6126C1.22885 23.7133 1.41437 22.8793 1.63839 22.1106C1.86242 21.342 2.16345 20.5925 2.5415 19.8623C2.91954 19.1321 3.35359 18.5095 3.84365 17.9945C4.33371 17.4795 4.93228 17.0682 5.63936 16.7608C6.34644 16.4533 7.12703 16.2996 7.98113 16.2996C8.10714 16.2996 8.40118 16.4648 8.86323 16.7953C9.32528 17.1259 9.84685 17.4948 10.4279 17.9022C11.009 18.3096 11.7651 18.6786 12.6962 19.0091C13.6273 19.3396 14.5619 19.5049 15.5 19.5049C16.4381 19.5049 17.3727 19.3396 18.3038 19.0091C19.2349 18.6786 19.991 18.3096 20.5721 17.9022C21.1532 17.4948 21.6747 17.1259 22.1368 16.7953C22.5988 16.4648 22.8929 16.2996 23.0189 16.2996C23.873 16.2996 24.6536 16.4533 25.3606 16.7608C26.0677 17.0682 26.6663 17.4795 27.1564 17.9945C27.6464 18.5095 28.0805 19.1321 28.4585 19.8623C28.8365 20.5925 29.1376 21.342 29.3616 22.1106C29.5856 22.8793 29.7712 23.7133 29.9182 24.6126C30.0652 25.512 30.1632 26.3498 30.2122 27.1262C30.2612 27.9025 30.2857 28.6981 30.2857 29.5128ZM23.5649 8.92041C23.5649 11.3648 22.7773 13.4517 21.2022 15.1812C19.627 16.9106 17.7263 17.7754 15.5 17.7754C13.2737 17.7754 11.373 16.9106 9.79784 15.1812C8.22266 13.4517 7.43507 11.3648 7.43507 8.92041C7.43507 6.47607 8.22266 4.38915 9.79784 2.65966C11.373 0.930174 13.2737 0.0654297 15.5 0.0654297C17.7263 0.0654297 19.627 0.930174 21.2022 2.65966C22.7773 4.38915 23.5649 6.47607 23.5649 8.92041Z"/>
</svg>