<svg width="31" height="32" viewBox="0 0 31 32" fill="none" xmlns="http://www.w3.org/2000/svg">
<path d="M15.4996 20.0304C13.4582 20.0304 11.8033 21.785 11.8033 23.9493V31.7871H19.1958V23.9493C19.1958 21.785 17.5409 20.0304 15.4996 20.0304Z" fill="#BBBBBB"/>
<path d="M21.6598 23.948V31.7858H26.5882C28.6296 31.7858 30.2845 30.0312 30.2845 27.8669V15.9521C30.2847 15.2735 30.036 14.6214 29.5908 14.1338L19.1205 2.13275C17.2731 0.0134825 14.155 -0.116637 12.1562 1.84208C12.0612 1.93515 11.9697 2.03208 11.882 2.13275L1.43015 14.1298C0.971467 14.6195 0.714114 15.2816 0.714287 15.9717V27.8669C0.714287 30.0312 2.36918 31.7858 4.41056 31.7858H9.3389V23.948C9.36194 20.3859 12.0745 17.4771 15.3496 17.3934C18.7342 17.3068 21.634 20.2651 21.6598 23.948Z" fill="#BBBBBB"/>
<path d="M15.4996 20.0304C13.4582 20.0304 11.8033 21.785 11.8033 23.9493V31.7871H19.1958V23.9493C19.1958 21.785 17.5409 20.0304 15.4996 20.0304Z" fill="#BBBBBB"/>
</svg>
