<svg width="31" height="32" viewBox="0 0 31 32" fill="none" xmlns="http://www.w3.org/2000/svg">
<path d="M4.80996 24.0728H26.1896C26.8476 24.0728 27.4959 23.9214 28.0797 23.6312C28.6635 23.3411 29.1655 22.9208 29.5434 22.4059C29.9213 21.891 30.1639 21.2967 30.2507 20.6733C30.3375 20.0498 30.2659 19.4156 30.0419 18.8242L26.1473 8.53174C25.4821 6.24444 24.0515 4.22836 22.0741 2.79184C20.0968 1.35531 17.6816 0.577425 15.198 0.577148V0.577148C12.6126 0.57711 10.1044 1.41984 8.08766 2.96621C6.07091 4.51258 4.66615 6.67011 4.10531 9.08258L0.896183 19.003C0.70724 19.5887 0.664764 20.2086 0.772172 20.8128C0.87958 21.4171 1.13387 21.9888 1.51459 22.482C1.89531 22.9751 2.39182 23.376 2.96418 23.6523C3.53653 23.9286 4.16875 24.0727 4.80996 24.0728Z" fill="#BBBBBB"/>
<path d="M8.94924 26.6824C9.26266 28.1578 10.1001 29.4842 11.3196 30.437C12.539 31.3897 14.0656 31.9102 15.6406 31.9102C17.2156 31.9102 18.7422 31.3897 19.9617 30.437C21.1812 29.4842 22.0186 28.1578 22.332 26.6824H8.94924Z" fill="#BBBBBB"/>
</svg>
