<svg width="25" height="34" viewBox="0 0 25 34" fill="none" xmlns="http://www.w3.org/2000/svg">
<path d="M6.40313 2.44141C6.40313 2.9533 6.40313 3.41911 6.40313 3.888C6.41077 5.97138 7.68909 7.34324 9.62855 7.34631C11.5489 7.34631 13.4686 7.34631 15.3877 7.34631C17.3061 7.34631 18.5892 5.96934 18.5997 3.91155C18.5997 3.44061 18.5997 2.96968 18.5997 2.51922C18.6427 2.48441 18.6609 2.45677 18.679 2.45677C19.9898 2.45677 21.3026 2.41479 22.6115 2.45677C23.6538 2.49157 24.5156 3.39557 24.6713 4.50431C24.7002 4.7076 24.7145 4.91295 24.7143 5.11858C24.7143 13.6889 24.7143 22.2596 24.7143 30.8307C24.7143 31.7439 24.4449 32.5076 23.7388 33.0553C23.2965 33.3993 22.7939 33.5078 22.2541 33.5068C15.7574 33.5027 9.26072 33.5027 2.76402 33.5068C1.23538 33.5068 0.286669 32.4964 0.285713 30.8583C0.287624 27.0867 0.288579 23.3158 0.288579 19.5456C0.288579 14.7189 0.288579 9.89142 0.288579 5.0633C0.288579 3.69144 1.03952 2.69223 2.22804 2.47519C2.4526 2.44423 2.67917 2.43327 2.90541 2.44243C3.93056 2.44243 4.9557 2.44243 5.98084 2.44243L6.40313 2.44141ZM12.5033 25.3391H19.7978C19.9048 25.3391 20.0128 25.3391 20.1198 25.3391C20.5908 25.2972 20.8889 24.9706 20.8841 24.5068C20.8841 24.0584 20.5879 23.7441 20.1332 23.7001C20.0261 23.6898 19.9182 23.7001 19.8112 23.7001C14.9367 23.7001 10.062 23.7001 5.1869 23.7001C5.02068 23.6945 4.85439 23.7086 4.69105 23.7421C4.53236 23.7878 4.39207 23.888 4.29174 24.0275C4.19141 24.167 4.1366 24.3379 4.13574 24.5139C4.13487 24.69 4.18799 24.8615 4.28694 25.0021C4.38588 25.1427 4.52518 25.2446 4.68341 25.2921C4.84658 25.3271 5.01292 25.3422 5.17926 25.3371C7.62126 25.3405 10.0636 25.3412 12.5062 25.3391H12.5033ZM12.5033 18.787H19.8322C19.9635 18.7909 20.0949 18.7872 20.2258 18.7757C20.4055 18.7582 20.5726 18.6694 20.6945 18.5269C20.8164 18.3843 20.8844 18.1982 20.885 18.0048C20.8984 17.4694 20.5631 17.1602 19.9574 17.1592H5.04933C4.96583 17.1565 4.88226 17.1589 4.79901 17.1664C4.60101 17.1871 4.41874 17.2911 4.29214 17.4555C4.16553 17.62 4.10491 17.8315 4.12355 18.0437C4.15412 18.5239 4.46845 18.786 5.03213 18.787C7.52317 18.7877 10.0142 18.7873 12.5053 18.786L12.5033 18.787ZM12.4737 12.2533H19.8742C19.9934 12.2586 20.1128 12.2552 20.2316 12.243C20.4167 12.2176 20.5862 12.119 20.7069 11.9665C20.8277 11.814 20.8908 11.6187 20.8841 11.4189C20.8859 11.2189 20.8157 11.0258 20.6881 10.8798C20.5606 10.7338 20.3854 10.646 20.1991 10.6347C20.0806 10.6224 19.9612 10.6255 19.8418 10.6255H5.14964C5.01858 10.6213 4.88741 10.6265 4.75698 10.6408C4.58411 10.6639 4.42481 10.753 4.3083 10.8918C4.19178 11.0306 4.12585 11.2097 4.12259 11.3964C4.10348 11.9175 4.44169 12.2522 5.00347 12.2533C7.49451 12.2539 9.98523 12.2536 12.4756 12.2522L12.4737 12.2533Z" fill="#BBBBBB"/>
<path d="M12.5238 0.811523C13.5012 0.811523 14.4795 0.811523 15.4559 0.811523C16.4639 0.81869 17.0801 1.4821 17.0801 2.56115C17.0801 3.04642 17.0849 3.53169 17.0801 4.01696C17.0705 4.98033 16.4696 5.6939 15.5744 5.70517C13.5241 5.72974 11.4741 5.72974 9.42449 5.70517C8.52832 5.69493 7.93024 4.97931 7.93024 4.01287C7.93024 3.5276 7.93024 3.04233 7.93024 2.55706C7.93024 1.48005 8.54361 0.820737 9.55442 0.811523C10.5461 0.811523 11.535 0.811523 12.5238 0.811523Z" fill="#BBBBBB"/>
</svg>
