<svg width="31" height="36" viewBox="0 0 20 20" fill="none" xmlns="http://www.w3.org/2000/svg">
    <path d="M5 19V6.2C5 5.0799 5 4.51984 5.21799 4.09202C5.40973 3.71569 5.71569 3.40973 6.09202 3.21799C6.51984 3 7.0799 3 8.2 3H15.8C16.9201 3 17.4802 3 17.908 3.21799C18.2843 3.40973 18.5903 3.71569 18.782 4.09202C19 4.51984 19 5.0799 19 6.2V11M5 19H19M5 19C4.44772 19 4 18.5523 4 18V17M19 19C19.5523 19 20 18.5523 20 18V17M15 15H9V11H15V15ZM15 15V19M9 15V19M15 7H9V9H15V7Z" stroke="#BBBBBB" stroke-opacity="0.733333" stroke-width="2" stroke-linecap="round" stroke-linejoin="round"/>
</svg>