<svg width="32" height="31" viewBox="0 0 32 31" fill="none" xmlns="http://www.w3.org/2000/svg">
<path d="M30.665 16.8339C31.2436 17.436 31.5714 18.2522 31.5714 19.1018C31.5714 19.9514 31.2436 20.7676 30.665 21.3696C30.0864 21.9717 29.3021 22.3129 28.4857 22.3129H3.8C2.98164 22.3129 2.19672 21.9717 1.61814 21.3696C1.03957 20.7676 0.714287 19.9514 0.714287 19.1018C0.714287 18.2522 1.03957 17.436 1.61814 16.8339C2.19672 16.2318 2.98164 15.8906 3.8 15.8906H28.4857C29.3021 15.8906 30.0864 16.2318 30.665 16.8339ZM30.2407 24.7681C30.4336 24.9688 30.5429 25.2431 30.5429 25.5241V26.5944C30.5429 27.6715 30.1121 28.8222 29.3407 29.625C28.5693 30.4278 27.4636 30.876 26.4286 30.876H5.85714C4.76622 30.876 3.71964 30.4278 2.94822 29.625C2.17614 28.8222 1.74286 27.6715 1.74286 26.5944V25.5241C1.74286 25.2431 1.8515 24.9688 2.04436 24.7681C2.23722 24.5674 2.49886 24.4537 2.77143 24.4537H29.5143C29.7843 24.4537 30.0479 24.5674 30.2407 24.7681ZM2.92507 13.5358C2.63836 13.3886 2.38764 13.1812 2.19093 12.9203C1.99422 12.6594 1.85793 12.3584 1.79107 12.0372C1.72422 11.7094 1.73 11.3749 1.8065 11.0538C3.22014 5.25504 9.10357 0.905273 16.1429 0.905273C23.1821 0.905273 29.0643 5.25504 30.4786 11.0538C30.5557 11.3749 30.5621 11.7094 30.4914 12.0372C30.4271 12.3584 30.2921 12.6594 30.0929 12.9203C29.8421 13.1812 29.6493 13.3886 29.36 13.5358C29.0771 13.6763 28.7621 13.7499 28.4407 13.7499H3.84307C3.5255 13.7499 3.21114 13.6763 2.92507 13.5358ZM23.645 6.57161C23.4521 6.77231 23.3429 7.04659 23.3429 7.32757C23.3429 7.54164 23.4007 7.74903 23.5164 7.92297C23.6321 8.0969 23.735 8.23739 23.9793 8.31767C24.1657 8.33774 24.3714 8.41802 24.5707 8.37788C24.77 8.33774 24.9564 8.23739 25.0979 8.08352C25.2457 7.93635 25.3421 7.74234 25.3807 7.53495C25.4193 7.32757 25.3421 7.11349 25.3229 6.91948C25.2457 6.66527 25.1107 6.55823 24.9436 6.43781C24.7764 6.31739 24.5771 6.19698 24.3714 6.19698C24.1014 6.19698 23.8379 6.37091 23.645 6.57161ZM15.4164 4.43018C15.2236 4.63087 15.1143 4.90315 15.1143 5.1868C15.1143 5.3982 15.1721 5.60827 15.2879 5.7822C15.4036 5.95614 15.5064 6.09663 15.7507 6.17691C15.9371 6.19698 16.1429 6.27725 16.3421 6.23711C16.5414 6.19698 16.7279 6.09663 16.8693 5.94276C17.0171 5.79558 17.1136 5.60158 17.1521 5.39553C17.1907 5.18814 17.1136 4.97273 17.0943 4.77738C17.0171 4.58137 16.8821 4.41412 16.715 4.29705C16.5479 4.1793 16.3486 4.05621 16.1429 4.05621C15.8729 4.05621 15.6093 4.22948 15.4164 4.43018ZM7.18786 6.57161C6.995 6.77231 6.88572 7.04659 6.88572 7.32757C6.88572 7.54164 6.94357 7.74903 7.05929 7.92297C7.175 8.0969 7.27786 8.23739 7.52214 8.31767C7.70857 8.33774 7.91429 8.41802 8.11357 8.37788C8.31286 8.33774 8.49929 8.23739 8.64072 8.08352C8.78857 7.93635 8.885 7.74234 8.92357 7.53495C8.96214 7.32757 8.885 7.11349 8.86572 6.91948C8.78857 6.66527 8.65357 6.55823 8.48643 6.43781C8.31929 6.31739 8.12 6.19698 7.91429 6.19698C7.64429 6.19698 7.38072 6.37091 7.18786 6.57161Z" fill="#BBBBBB"/>
</svg>
