<svg width="32" height="36" viewBox="0 0 32 36" fill="none" xmlns="http://www.w3.org/2000/svg">
<path d="M29.8257 20.3856L29.2039 19.9991C28.4639 19.5401 28.0218 18.7162 28.0218 17.7969C28.0218 16.8776 28.4639 16.0537 29.2039 15.5947L29.8257 15.2081C31.5232 14.1528 32.1037 11.8234 31.1237 9.99759L29.9416 7.79538C28.9639 5.97334 26.79 5.34777 25.0972 6.39929L24.4754 6.78455C23.7354 7.24483 22.85 7.24483 22.1112 6.78455C21.3712 6.32427 20.9291 5.50162 20.9291 4.58234V3.81055C20.9291 1.70751 19.3379 -0.00390625 17.3827 -0.00390625H15.0185C13.0632 -0.00390625 11.4721 1.70751 11.4721 3.81055V4.58361C11.4721 5.50289 11.03 6.32554 10.29 6.78582C9.54999 7.24483 8.66576 7.2461 7.92576 6.78582L7.30396 6.39929C5.61116 5.34777 3.43725 5.97334 2.45845 7.79538L1.27633 9.99759C0.296353 11.8234 0.876774 14.1541 2.5743 15.2081L3.19728 15.5947C3.93728 16.0537 4.3794 16.8776 4.3794 17.7969C4.3794 18.7162 3.93728 19.5401 3.19728 19.9991L2.57548 20.3856C0.877956 21.4397 0.297535 23.7703 1.27751 25.5962L2.45963 27.7984C3.43843 29.6204 5.61235 30.246 7.30396 29.1945L7.92576 28.8092C8.66576 28.3477 9.54999 28.3502 10.29 28.8092C11.03 29.2695 11.4721 30.0921 11.4721 31.0114V31.7832C11.4721 33.8862 13.0632 35.5977 15.0185 35.5977H17.3827C19.3379 35.5977 20.9291 33.8862 20.9291 31.7832V31.0101C20.9291 30.0909 21.3712 29.2682 22.1112 28.8079C22.85 28.3489 23.7354 28.3477 24.4754 28.8079L25.0972 29.1945C26.79 30.2447 28.9639 29.6191 29.9416 27.7984L31.1237 25.5962C32.1037 23.7703 31.5232 21.4397 29.8257 20.3856ZM16.2006 24.1543C12.9415 24.1543 10.29 21.3024 10.29 17.7969C10.29 14.2914 12.9415 11.4395 16.2006 11.4395C19.4597 11.4395 22.1112 14.2914 22.1112 17.7969C22.1112 21.3024 19.4597 24.1543 16.2006 24.1543Z" fill="#BBBBBB"/>
</svg>
